PathFileType	4	(X/Y/Z)	/Users/itak/Documents/Research/Walk-IL/dataset/trc/00416_00012.trc
DataRate	CameraRate	NumFrames	NumMarkers	Units	OrigDataRate	OrigDataStartFrame	OrigNumFrames
100.000000	100.000000	4	56	mm	100.000000	223	595
Frame#	Time	RPSI			LPSI			L3			STRN			T10			C7			CLAV			RBAK			LBAK			LSHO			LUPA			LAEL			LAOL			LWTS			LWPS			LFRA			LHPS			RSHO			RUPA			RAEL			RAOL			RWTS			RWPS			RFRA			RIFD			RHTS			RHPS			RBHD			LFHD			RFHD			LBHD			LHIP			RASI			LASI			LKNE			LTHI			LANK			LTIP			LTOE			LMT1			LMT5			LHEE			RKNE			RTHI			RANK			RTIP			RTOE			RMT1			RMT5			RHEE			LIFD			LHTS			RHIP			*53			*54			*55			
		X1	Y1	Z1	X2	Y2	Z2	X3	Y3	Z3	X4	Y4	Z4	X5	Y5	Z5	X6	Y6	Z6	X7	Y7	Z7	X8	Y8	Z8	X9	Y9	Z9	X10	Y10	Z10	X11	Y11	Z11	X12	Y12	Z12	X13	Y13	Z13	X14	Y14	Z14	X15	Y15	Z15	X16	Y16	Z16	X17	Y17	Z17	X18	Y18	Z18	X19	Y19	Z19	X20	Y20	Z20	X21	Y21	Z21	X22	Y22	Z22	X23	Y23	Z23	X24	Y24	Z24	X25	Y25	Z25	X26	Y26	Z26	X27	Y27	Z27	X28	Y28	Z28	X29	Y29	Z29	X30	Y30	Z30	X31	Y31	Z31	X32	Y32	Z32	X33	Y33	Z33	X34	Y34	Z34	X35	Y35	Z35	X36	Y36	Z36	X37	Y37	Z37	X38	Y38	Z38	X39	Y39	Z39	X40	Y40	Z40	X41	Y41	Z41	X42	Y42	Z42	X43	Y43	Z43	X44	Y44	Z44	X45	Y45	Z45	X46	Y46	Z46	X47	Y47	Z47	X48	Y48	Z48	X49	Y49	Z49	X50	Y50	Z50	X51	Y51	Z51	X52	Y52	Z52	X53	Y53	Z53	X54	Y54	Z54	X55	Y55	Z55	X56	Y56	Z56	

224	2.23	-1234.182983398438	936.3391723632812	-568.7435913085938	-1245.937255859375	936.58642578125	-700.0062866210938	-1233.754760742188	1017.333435058594	-638.2171630859375	-989.2225952148438	1151.615844726562	-635.4768676757812	-1238.732421875	1119.164794921875	-653.5048828125	-1181.766723632812	1364.34912109375	-665.4087524414062	-1035.108276367188	1273.929443359375	-639.7715454101562	-1244.980834960938	1223.5166015625	-605.2415161132812	-1185.841796875	1326.971435546875	-769.3594360351562	-1092.99951171875	1334.354736328125	-808.4531860351562	-1115.727172851562	1219.451049804688	-881.4829711914062	-1098.124633789062	1025.017211914062	-898.4140014648438	-1169.5791015625	1002.021667480469	-856.7338256835938	-952.4557495117188	879.1973876953125	-814.5270385742188	-971.4229736328125	843.046875	-885.9833374023438	-1053.482788085938	940.0126342773438	-897.41943359375	-921.2989501953125	775.4453735351562	-865.5833129882812	-1148.039184570312	1338.812866210938	-501.1464538574219	-1179.429077148438	1277.709350585938	-448.4967346191406	-1233.505737304688	1020.466796875	-420.9667053222656	-1229.089721679688	1013.950500488281	-515.3720092773438	-1158.84716796875	780.4137573242188	-422.3158569335938	-1215.367309570312	782.1040649414062	-374.4034423828125	-1227.654174804688	953.1357421875	-399.3988647460938	-1205.01513671875	610.7807006835938	-417.5202331542969	-1174.3974609375	675.402099609375	-402.8075561523438	-1232.900756835938	697.002197265625	-376.0929565429688	-1173.940795898438	1539.071533203125	-585.2113037109375	-994.7749633789062	1557.615478515625	-666.3200073242188	-1046.256958007812	1557.240234375	-554.8868408203125	-1120.821166992188	1536.087524414062	-738.0184936523438	-1170.298583984375	918.875	-821.5247192382812	-1017.298461914062	918.4814453125	-533.4992065429688	-1053.594848632812	903.6029052734375	-795.0682983398438	-1255.20263671875	441.7213134765625	-792.7772216796875	-1215.697387695312	579.3619384765625	-807.9984130859375	-1520.207641601562	72.93839263916016	-739.47216796875	-1393.684936523438	249.1194610595703	-779.396728515625	-1307.97314453125	39.35984802246094	-683.3653564453125	-1384.45263671875	51.76226043701172	-650.029052734375	-1398.160522460938	42.45658493041992	-754.439453125	-1556.263427734375	87.38053894042969	-682.305419921875	-923.776611328125	466.904296875	-528.3568725585938	-1004.379821777344	711.8363037109375	-483.1111755371094	-838.99365234375	53.72794342041016	-590.8504638671875	-875.7351684570312	350.9756469726562	-549.55078125	-663.2392578125	88.96836090087891	-635.6961669921875	-731.2982788085938	73.54243469238281	-672.4234008789062	-757.2449951171875	59.58206176757812	-577.645751953125	-900.2752075195312	29.73621940612793	-652.5641479492188	-865.4698486328125	720.2705688476562	-799.8894653320312	-887.1474609375	801.705078125	-818.0164794921875	-1142.065795898438	914.3670043945312	-462.8377075195312	nan	nan	nan	nan	nan	nan	nan	nan	nan	
225	2.24	-1222.943237304688	936.3231811523438	-567.341796875	-1234.55126953125	936.53662109375	-698.703369140625	-1222.640502929688	1016.48486328125	-637.0858154296875	-979.087646484375	1151.457275390625	-633.7564086914062	-1228.531982421875	1118.575073242188	-652.0941772460938	-1172.336059570312	1363.85107421875	-663.7816772460938	-1025.3037109375	1273.645263671875	-637.8628540039062	-1235.146606445312	1222.606689453125	-604.1464233398438	-1176.10546875	1326.614013671875	-767.8373413085938	-1083.096069335938	1334.256958007812	-806.6060180664062	-1105.2978515625	1219.299438476562	-879.706298828125	-1087.1123046875	1024.905151367188	-897.1659545898438	-1158.646606445312	1001.764953613281	-855.7084350585938	-941.9409790039062	878.9325561523438	-812.229248046875	-960.6318969726562	842.5383911132812	-883.80615234375	-1042.361450195312	939.6670532226562	-895.9210205078125	-910.6586303710938	775.0065307617188	-862.9398803710938	-1138.980590820312	1337.974853515625	-499.4696960449219	-1170.451293945312	1276.650634765625	-447.17431640625	-1225.0546875	1019.421142578125	-421.0078735351562	-1219.753295898438	1013.244140625	-515.348876953125	-1151.128295898438	779.111083984375	-422.51904296875	-1208.073852539062	780.9462280273438	-375.0035095214844	-1219.472045898438	952.08154296875	-399.5546875	-1198.464233398438	609.778076171875	-418.9072570800781	-1166.85009765625	674.2069702148438	-403.5045471191406	-1226.09130859375	695.9473266601562	-377.2449035644531	-1165.658569335938	1538.350830078125	-583.5897827148438	-986.4403686523438	1558.058715820312	-664.201171875	-1038.152954101562	1557.36572265625	-552.9130249023438	-1112.23779296875	1535.706665039062	-736.19189453125	-1158.959716796875	918.7247924804688	-820.2772827148438	-1006.418090820312	917.9083251953125	-532.14990234375	-1042.417236328125	903.0701293945312	-793.844970703125	-1246.9306640625	442.4528503417969	-792.6434326171875	-1206.277465820312	579.7802124023438	-807.3380737304688	-1518.114624023438	77.00425720214844	-740.8648071289062	-1388.709594726562	252.2120056152344	-780.0455932617188	-1307.784790039062	39.32071685791016	-683.4586181640625	-1383.352905273438	53.37600708007812	-650.748779296875	-1397.144287109375	42.49444580078125	-754.999267578125	-1553.84130859375	93.73091888427734	-684.03173828125	-913.7572631835938	466.3883056640625	-528.13427734375	-993.6961669921875	710.6688842773438	-481.5287780761719	-837.4971923828125	52.78667831420898	-591.2294311523438	-867.4453735351562	349.5598754882812	-549.4708862304688	-659.5787353515625	81.01770782470703	-634.0673828125	-727.8795776367188	68.05844116210938	-671.86669921875	-755.760009765625	55.95248794555664	-577.2368774414062	-899.1939086914062	31.30120086669922	-653.6011962890625	-855.0211791992188	720.1067504882812	-796.81884765625	-876.597900390625	801.4758911132812	-815.2420043945312	-1130.392944335938	914.1937866210938	-461.0166320800781	nan	nan	nan	nan	nan	nan	nan	nan	nan	
226	2.25	-1211.515747070312	936.7273559570312	-565.9246826171875	-1222.88720703125	936.8154907226562	-697.4036865234375	-1211.247680664062	1015.861145019531	-635.9747314453125	-968.7792358398438	1151.65087890625	-631.961181640625	-1218.198608398438	1118.27978515625	-650.57421875	-1162.828247070312	1363.630004882812	-662.1078491210938	-1015.356506347656	1273.713745117188	-635.89208984375	-1225.147583007812	1221.967529296875	-602.98974609375	-1166.289184570312	1326.531005859375	-766.2619018554688	-1073.1279296875	1334.479614257812	-804.7115478515625	-1094.819091796875	1219.465576171875	-877.84814453125	-1075.959594726562	1025.081787109375	-895.9065551757812	-1147.53662109375	1001.822814941406	-854.5849609375	-931.50634765625	878.5255737304688	-809.8695678710938	-949.9379272460938	842.0069580078125	-881.6246337890625	-1031.155517578125	939.4764404296875	-894.3953857421875	-900.296142578125	774.4301147460938	-860.3253173828125	-1129.835693359375	1337.44775390625	-497.7543640136719	-1161.3544921875	1275.884033203125	-445.8099060058594	-1216.283203125	1018.638244628906	-420.9363098144531	-1210.1650390625	1012.790893554688	-515.234130859375	-1142.984252929688	778.1182250976562	-422.5429382324219	-1200.3642578125	780.1029052734375	-375.4246826171875	-1210.9453125	951.318115234375	-399.5800476074219	-1191.457153320312	609.0906982421875	-420.0740051269531	-1158.94970703125	673.3253173828125	-404.0286560058594	-1218.813720703125	695.20361328125	-378.18359375	-1157.294067382812	1537.978637695312	-581.8378295898438	-978.0247802734375	1558.7939453125	-661.9953002929688	-1029.954467773438	1557.763305664062	-550.8466796875	-1103.596557617188	1535.707885742188	-734.2730712890625	-1147.26904296875	918.8350219726562	-818.980224609375	-995.35107421875	917.7075805664062	-530.658935546875	-1030.949584960938	902.7785034179688	-792.4306030273438	-1237.940063476562	443.3310852050781	-792.569580078125	-1196.334716796875	580.3814086914062	-806.6477661132812	-1515.562866210938	81.46645355224609	-742.539794921875	-1383.093994140625	255.5859832763672	-780.8728637695312	-1307.676147460938	39.32740783691406	-683.5553588867188	-1382.128784179688	55.09480667114258	-651.5885620117188	-1396.00390625	42.52105331420898	-755.6193237304688	-1550.863647460938	100.7115859985352	-686.1343383789062	-903.752685546875	466.1988830566406	-527.8484497070312	-983.0701293945312	709.8482055664062	-479.8580017089844	-836.0927734375	52.17653274536133	-591.5908203125	-859.098388671875	348.512451171875	-549.4140014648438	-656.2645263671875	73.26548004150391	-632.7488403320312	-724.8341064453125	62.99532318115234	-671.4970703125	-754.4111328125	52.89106369018555	-576.9488525390625	-898.1243286132812	32.9800910949707	-654.4697265625	-845.008544921875	719.655517578125	-793.798828125	-866.2588500976562	801.0247192382812	-812.4307861328125	-1118.855102539062	914.3963623046875	-459.230224609375	nan	nan	nan	nan	nan	nan	nan	nan	nan	
227	2.26	-1199.981567382812	937.5358276367188	-564.5380859375	-1211.000854492188	937.4252319335938	-696.1405639648438	-1199.640991210938	1015.496215820312	-634.9052734375	-958.3220825195312	1152.231567382812	-630.0786743164062	-1207.746704101562	1118.284790039062	-648.9805908203125	-1153.2568359375	1363.697998046875	-660.4031982421875	-1005.293884277344	1274.163208007812	-633.8598022460938	-1215.007934570312	1221.624755859375	-601.7930908203125	-1156.386596679688	1326.742431640625	-764.6458740234375	-1063.09521484375	1335.047241210938	-802.771484375	-1084.287231445312	1219.981689453125	-875.9227294921875	-1064.671142578125	1025.583740234375	-894.6193237304688	-1136.267944335938	1002.236267089844	-853.3527221679688	-921.179443359375	877.9951782226562	-807.501220703125	-939.3821411132812	841.4675903320312	-879.4627075195312	-1019.889526367188	939.4769897460938	-892.837890625	-890.2448120117188	773.7236938476562	-857.7650756835938	-1120.635498046875	1337.264892578125	-496.0140991210938	-1152.175170898438	1275.44873046875	-444.415771484375	-1207.19287109375	1018.155700683594	-420.7514038085938	-1200.29052734375	1012.616394042969	-515.0208740234375	-1134.419921875	777.4744262695312	-422.3686828613281	-1192.225341796875	779.6093139648438	-375.6488342285156	-1202.077392578125	950.8865356445312	-399.4703979492188	-1183.995361328125	608.7569580078125	-421.0086059570312	-1150.7666015625	672.7764282226562	-404.3736572265625	-1211.058471679688	694.8046875	-378.8922119140625	-1148.855346679688	1537.961669921875	-579.96826171875	-969.5281372070312	1559.819702148438	-659.7000732421875	-1021.673400878906	1558.433837890625	-548.684814453125	-1094.890502929688	1536.094604492188	-732.26806640625	-1135.255615234375	919.2252197265625	-817.642578125	-984.135009765625	917.9382934570312	-529.002197265625	-1019.206359863281	902.7750244140625	-790.7999877929688	-1228.111694335938	444.3184814453125	-792.57763671875	-1185.796508789062	581.140869140625	-805.9384155273438	-1512.468139648438	86.35194396972656	-744.523193359375	-1376.720581054688	259.1987609863281	-781.91455078125	-1307.674072265625	39.37320709228516	-683.6760864257812	-1380.766479492188	56.88033294677734	-652.581787109375	-1394.731811523438	42.53167343139648	-756.3065795898438	-1547.17822265625	108.2846832275391	-688.6219482421875	-893.7094116210938	466.3271484375	-527.5206298828125	-972.5249633789062	709.4497680664062	-478.1220092773438	-834.7196044921875	51.83093643188477	-591.9173583984375	-850.683349609375	347.8243408203125	-549.4234619140625	-653.3460693359375	66.09389495849609	-631.977294921875	-722.2349243164062	58.52309417724609	-671.42236328125	-753.10986328125	50.48348617553711	-576.8768310546875	-897.046875	34.59101486206055	-655.0886840820312	-835.4645385742188	718.9295654296875	-790.8601684570312	-856.1317138671875	800.36669921875	-809.6261596679688	-1107.46484375	914.9778442382812	-457.509033203125	nan	nan	nan	nan	nan	nan	nan	nan	nan	
